<svg width="192" height="192" viewBox="0 0 192 192" fill="none" xmlns="http://www.w3.org/2000/svg">
<path d="M36.9499 88.6638C30.4516 87.954 25.3111 86.0021 21.5285 82.8081C17.8428 79.6141 16 74.9118 16 68.7012V37.0272C16 23.0091 23.7592 16 39.2777 16C54.6022 16 62.2644 22.7873 62.2644 36.3618V71.2298C62.2644 76.8193 65.1256 79.6141 70.848 79.6141H91.798C81.129 75.3554 75.7946 66.35 75.7946 52.598V49.1379C75.7946 27.9332 86.9969 17.3308 109.402 17.3308H141.7V30.24L93.5438 54.8605H107.51C118.373 54.8605 126.666 56.7236 132.388 60.45C138.208 64.1763 141.118 69.4553 141.118 76.287V88.6638H128.46V79.0817C128.46 73.3148 126.618 69.1892 122.932 66.7049C119.343 64.2207 114.542 62.9786 108.529 62.9786H87.4334C88.9852 69.7215 96.89 75.2667 111.148 79.6141V88.6638H70.1206C56.542 88.6638 49.7526 82.7637 49.7526 70.9636V36.2287C49.7526 29.4858 46.261 26.1144 39.2777 26.1144C32.1974 26.1144 28.6572 29.6189 28.6572 36.628V68.1688C28.6572 74.7343 32.2944 78.5494 39.5687 79.6141L36.9499 88.6638ZM87.4334 48.7386L127.733 25.7151H108.674C101.885 25.7151 96.6475 27.4896 92.9619 31.0385C89.2762 34.4986 87.4334 38.9791 87.4334 44.4799V48.7386Z" fill="#D4A200"/>
<path d="M74.7421 176C68.2437 175.29 63.1032 173.338 59.3206 170.144C55.635 166.95 53.7921 162.248 53.7921 156.037V124.363C53.7921 110.345 61.5514 103.336 77.0698 103.336C92.3943 103.336 100.057 110.124 100.057 123.698V158.566C100.057 164.156 102.918 166.95 108.64 166.95H127.699C133.421 166.95 136.282 164.156 136.282 158.566V135.409C136.282 120.77 129.396 113.051 115.623 112.253V103.336H152.722C168.241 103.336 176 110.345 176 124.363V176H163.343V123.964C163.343 116.955 159.803 113.451 152.722 113.451H136.864C144.818 115.58 148.794 122.19 148.794 133.28V158.3C148.794 170.1 142.005 176 128.426 176H107.913C94.3341 176 87.5448 170.1 87.5448 158.3V123.565C87.5448 116.822 84.0531 113.451 77.0698 113.451C69.9895 113.451 66.4494 116.955 66.4494 123.964V155.505C66.4494 162.071 70.0865 165.886 77.3608 166.95L74.7421 176Z" fill="#D4A200"/>
</svg>
