<svg width="192" height="192" viewBox="0 0 192 192" fill="none" xmlns="http://www.w3.org/2000/svg">
<path d="M25.1399 87.1965C17.3419 86.3448 11.1733 84.0025 6.63414 80.1697C2.21138 76.3369 0 70.6941 0 63.2414V25.2327C0 8.4109 9.31107 0 27.9332 0C46.3226 0 55.5173 8.14473 55.5173 24.4342V66.2757C55.5173 72.9832 58.9507 76.3369 65.8177 76.3369H90.9576C78.1548 71.2264 71.7535 60.42 71.7535 43.9177V39.7654C71.7535 14.3198 85.1963 1.597 112.082 1.597H150.839V17.088L93.0525 46.6326H109.812C122.848 46.6326 132.799 48.8684 139.666 53.34C146.649 57.8116 150.141 64.1464 150.141 72.3444V87.1965H134.952V75.6981C134.952 68.7777 132.741 63.827 128.318 60.8459C124.012 57.8648 118.251 56.3743 111.035 56.3743H85.7201C87.5823 64.4658 97.068 71.12 114.177 76.3369V87.1965H64.9447C48.6504 87.1965 40.5032 80.1164 40.5032 65.9563V24.2745C40.5032 16.183 36.3132 12.1372 27.9332 12.1372C19.4369 12.1372 15.1887 16.3427 15.1887 24.7536V62.6026C15.1887 70.4812 19.5533 75.0593 28.2824 76.3369L25.1399 87.1965ZM85.7201 39.2863L134.079 11.6581H111.209C103.062 11.6581 96.777 13.7875 92.3542 18.0462C87.9315 22.1984 85.7201 27.575 85.7201 34.1759V39.2863Z" fill="#D4A200"/>
<path d="M70.4905 192C62.6924 191.148 56.5239 188.806 51.9847 184.973C47.5619 181.14 45.3506 175.498 45.3506 168.045V130.036C45.3506 113.214 54.6616 104.803 73.2838 104.803C91.6732 104.803 100.868 112.948 100.868 129.238V171.079C100.868 177.787 104.301 181.14 111.168 181.14H134.039C140.905 181.14 144.339 177.787 144.339 171.079V143.291C144.339 125.724 136.075 116.462 119.548 115.503V104.803H164.067C182.689 104.803 192 113.214 192 130.036V192H176.811V129.557C176.811 121.146 172.563 116.941 164.067 116.941H145.037C154.581 119.496 159.353 127.428 159.353 140.736V170.76C159.353 184.92 151.206 192 134.911 192H110.295C94.0009 192 85.8537 184.92 85.8537 170.76V129.078C85.8537 120.986 81.6638 116.941 73.2838 116.941C64.7874 116.941 60.5393 121.146 60.5393 129.557V167.406C60.5393 175.285 64.9038 179.863 73.633 181.14L70.4905 192Z" fill="#D4A200"/>
</svg>
